REM DIRINDEX 1\3,1\2\4,1\2\5,1\2\6
REM DIRNAME cjc137,folder01,folder02,folder03,folder04,folder05
TITLE ""
FILE "039.mp3" MP3
  TRACK 01 AUDIO
    TITLE "3:cjc137_1593"
    INDEX 01 00:00:00
  TRACK 02 AUDIO
    TITLE "0:"
    INDEX 01 00:03:35
  TRACK 03 AUDIO
    TITLE "4:cjc137_1594"
    INDEX 01 00:04:38
  TRACK 04 AUDIO
    TITLE "0:"
    INDEX 01 00:05:57
  TRACK 05 AUDIO
    TITLE "6:cjc137_1595"
    INDEX 01 00:05:65
  TRACK 06 AUDIO
    TITLE "0:"
    INDEX 01 00:07:11
  TRACK 07 AUDIO
    TITLE "5:cjc137_1596"
    INDEX 01 00:07:17
  TRACK 08 AUDIO
    TITLE "0:"
    INDEX 01 00:08:32
  TRACK 09 AUDIO
    TITLE "4:cjc137_1597"
    INDEX 01 00:09:42
  TRACK 10 AUDIO
    TITLE "0:"
    INDEX 01 00:10:41
  TRACK 11 AUDIO
    TITLE "6:cjc137_1598"
    INDEX 01 00:10:49
  TRACK 12 AUDIO
    TITLE "0:"
    INDEX 01 00:11:48
  TRACK 13 AUDIO
    TITLE "5:cjc137_1599"
    INDEX 01 00:11:52
  TRACK 14 AUDIO
    TITLE "0:"
    INDEX 01 00:12:50
  TRACK 15 AUDIO
    TITLE "4:cjc137_1600"
    INDEX 01 00:13:59
  TRACK 16 AUDIO
    TITLE "0:"
    INDEX 01 00:14:64
  TRACK 17 AUDIO
    TITLE "6:cjc137_1601"
    INDEX 01 00:14:74
  TRACK 18 AUDIO
    TITLE "0:"
    INDEX 01 00:16:20
  TRACK 19 AUDIO
    TITLE "5:cjc137_1602"
    INDEX 01 00:16:26
  TRACK 20 AUDIO
    TITLE "0:"
    INDEX 01 00:17:31
  TRACK 21 AUDIO
    TITLE "4:cjc137_1603"
    INDEX 01 00:18:39
  TRACK 22 AUDIO
    TITLE "0:"
    INDEX 01 00:19:40
  TRACK 23 AUDIO
    TITLE "6:cjc137_1604"
    INDEX 01 00:19:54
  TRACK 24 AUDIO
    TITLE "0:"
    INDEX 01 00:20:49
  TRACK 25 AUDIO
    TITLE "5:cjc137_1605"
    INDEX 01 00:20:53
  TRACK 26 AUDIO
    TITLE "0:"
    INDEX 01 00:21:57
  TRACK 27 AUDIO
    TITLE "4:cjc137_1606"
    INDEX 01 00:22:70
  TRACK 28 AUDIO
    TITLE "0:"
    INDEX 01 00:24:02
  TRACK 29 AUDIO
    TITLE "6:cjc137_1607"
    INDEX 01 00:24:10
  TRACK 30 AUDIO
    TITLE "0:"
    INDEX 01 00:25:11
  TRACK 31 AUDIO
    TITLE "5:cjc137_1608"
    INDEX 01 00:25:19
  TRACK 32 AUDIO
    TITLE "0:"
    INDEX 01 00:26:26
  TRACK 33 AUDIO
    TITLE "4:cjc137_1609"
    INDEX 01 00:27:34
  TRACK 34 AUDIO
    TITLE "0:"
    INDEX 01 00:28:43
  TRACK 35 AUDIO
    TITLE "6:cjc137_1610"
    INDEX 01 00:28:49
  TRACK 36 AUDIO
    TITLE "0:"
    INDEX 01 00:29:42
  TRACK 37 AUDIO
    TITLE "5:cjc137_1611"
    INDEX 01 00:29:48
  TRACK 38 AUDIO
    TITLE "0:"
    INDEX 01 00:30:55
  TRACK 39 AUDIO
    TITLE "4:cjc137_1612"
    INDEX 01 00:31:63
  TRACK 40 AUDIO
    TITLE "0:"
    INDEX 01 00:32:66
  TRACK 41 AUDIO
    TITLE "6:cjc137_1613"
    INDEX 01 00:32:74
  TRACK 42 AUDIO
    TITLE "0:"
    INDEX 01 00:34:00
  TRACK 43 AUDIO
    TITLE "5:cjc137_1614"
    INDEX 01 00:34:06
  TRACK 44 AUDIO
    TITLE "0:"
    INDEX 01 00:35:08
  TRACK 45 AUDIO
    TITLE "4:cjc137_1615"
    INDEX 01 00:36:17
  TRACK 46 AUDIO
    TITLE "0:"
    INDEX 01 00:37:28
  TRACK 47 AUDIO
    TITLE "6:cjc137_1616"
    INDEX 01 00:37:38
  TRACK 48 AUDIO
    TITLE "0:"
    INDEX 01 00:38:41
  TRACK 49 AUDIO
    TITLE "5:cjc137_1617"
    INDEX 01 00:38:47
  TRACK 50 AUDIO
    TITLE "0:"
    INDEX 01 00:39:60
  TRACK 51 AUDIO
    TITLE "4:cjc137_1618"
    INDEX 01 00:40:68
  TRACK 52 AUDIO
    TITLE "0:"
    INDEX 01 00:41:73
  TRACK 53 AUDIO
    TITLE "6:cjc137_1619"
    INDEX 01 00:42:04
  TRACK 54 AUDIO
    TITLE "0:"
    INDEX 01 00:42:63
  TRACK 55 AUDIO
    TITLE "5:cjc137_1620"
    INDEX 01 00:42:72
  TRACK 56 AUDIO
    TITLE "0:"
    INDEX 01 00:44:01
  TRACK 57 AUDIO
    TITLE "4:cjc137_1621"
    INDEX 01 00:45:08
  TRACK 58 AUDIO
    TITLE "0:"
    INDEX 01 00:46:07
  TRACK 59 AUDIO
    TITLE "6:cjc137_1622"
    INDEX 01 00:46:15
  TRACK 60 AUDIO
    TITLE "0:"
    INDEX 01 00:47:03
  TRACK 61 AUDIO
    TITLE "5:cjc137_1623"
    INDEX 01 00:47:09
  TRACK 62 AUDIO
    TITLE "0:"
    INDEX 01 00:48:08
  TRACK 63 AUDIO
    TITLE "4:cjc137_1624"
    INDEX 01 00:49:18
  TRACK 64 AUDIO
    TITLE "0:"
    INDEX 01 00:50:31
  TRACK 65 AUDIO
    TITLE "6:cjc137_1625"
    INDEX 01 00:50:39
  TRACK 66 AUDIO
    TITLE "0:"
    INDEX 01 00:51:58
  TRACK 67 AUDIO
    TITLE "5:cjc137_1626"
    INDEX 01 00:51:67
  TRACK 68 AUDIO
    TITLE "0:"
    INDEX 01 00:53:04
  TRACK 69 AUDIO
    TITLE "4:cjc137_1627"
    INDEX 01 00:54:13
  TRACK 70 AUDIO
    TITLE "0:"
    INDEX 01 00:55:14
  TRACK 71 AUDIO
    TITLE "6:cjc137_1628"
    INDEX 01 00:55:22
  TRACK 72 AUDIO
    TITLE "0:"
    INDEX 01 00:56:02
  TRACK 73 AUDIO
    TITLE "5:cjc137_1629"
    INDEX 01 00:56:06
  TRACK 74 AUDIO
    TITLE "0:"
    INDEX 01 00:57:09
  TRACK 75 AUDIO
    TITLE "4:cjc137_1630"
    INDEX 01 00:58:18
  TRACK 76 AUDIO
    TITLE "0:"
    INDEX 01 00:59:28
  TRACK 77 AUDIO
    TITLE "6:cjc137_1631"
    INDEX 01 00:59:39
  TRACK 78 AUDIO
    TITLE "0:"
    INDEX 01 01:00:39
  TRACK 79 AUDIO
    TITLE "5:cjc137_1632"
    INDEX 01 01:00:47
  TRACK 80 AUDIO
    TITLE "0:"
    INDEX 01 01:01:56
  TRACK 81 AUDIO
    TITLE "4:cjc137_1633"
    INDEX 01 01:02:67
  TRACK 82 AUDIO
    TITLE "0:"
    INDEX 01 01:04:00
  TRACK 83 AUDIO
    TITLE "6:cjc137_1634"
    INDEX 01 01:04:07
  TRACK 84 AUDIO
    TITLE "0:"
    INDEX 01 01:05:03
  TRACK 85 AUDIO
    TITLE "5:cjc137_1635"
    INDEX 01 01:05:09
  TRACK 86 AUDIO
    TITLE "0:"
    INDEX 01 01:06:18
